<svg width="24" height="24" viewBox="0 0 24 24" fill="none" xmlns="http://www.w3.org/2000/svg">
<path fill-rule="evenodd" clip-rule="evenodd" d="M2.25 13C2.25 7.61522 6.61522 3.25 12 3.25C17.3848 3.25 21.75 7.61522 21.75 13C21.75 18.3848 17.3848 22.75 12 22.75C6.61522 22.75 2.25 18.3848 2.25 13ZM12.75 9C12.75 8.58579 12.4142 8.25 12 8.25C11.5858 8.25 11.25 8.58579 11.25 9V12.7324C11.25 13.1503 11.4589 13.5406 11.8066 13.7725L14.584 15.624C14.9286 15.8538 15.3943 15.7607 15.624 15.416C15.8538 15.0714 15.7607 14.6057 15.416 14.376L12.75 12.5986V9Z" fill="#D9D9D9"/>
<path d="M17 2L21 5" stroke="#D9D9D9" stroke-width="1.5" stroke-linecap="round"/>
<path d="M12 2L12 4" stroke="#D9D9D9" stroke-width="1.5" stroke-linecap="round"/>
<path d="M17 21L18 23" stroke="#D9D9D9" stroke-width="1.5" stroke-linecap="round"/>
<path d="M7 21L6 23" stroke="#D9D9D9" stroke-width="1.5" stroke-linecap="round"/>
<path d="M7 2L3 5" stroke="#D9D9D9" stroke-width="1.5" stroke-linecap="round"/>
</svg>
