<svg width="24" height="24" viewBox="0 0 24 24" fill="none" xmlns="http://www.w3.org/2000/svg">
<path fill-rule="evenodd" clip-rule="evenodd" d="M12 2C8.68629 2 6 4.68629 6 8V10.7822C6 12.1427 4.86911 13.2897 4.27188 14.5121C4.09774 14.8685 4 15.2691 4 15.6925C4 17.1258 5.12235 18.3073 6.55445 18.3645C8.20241 18.4303 10.3401 18.5 12 18.5C13.6599 18.5 15.7976 18.4303 17.4455 18.3645C18.8776 18.3073 20 17.1258 20 15.6925C20 15.2691 19.9023 14.8685 19.7281 14.5121C19.1309 13.2897 18 12.1427 18 10.7822V8C18 4.68629 15.3137 2 12 2Z" fill="#D9D9D9"/>
<path d="M6.55445 18.3645L6.52453 19.1139H6.52453L6.55445 18.3645ZM17.4455 18.3645L17.4156 17.6151H17.4156L17.4455 18.3645ZM6.75 8C6.75 5.1005 9.10051 2.75 12 2.75V1.25C8.27208 1.25 5.25 4.27208 5.25 8H6.75ZM6.75 10.7822V8H5.25V10.7822H6.75ZM4.75 15.6925C4.75 15.3857 4.8206 15.0975 4.94576 14.8413L3.59801 14.1828C3.37487 14.6395 3.25 15.1525 3.25 15.6925H4.75ZM6.58437 17.6151C5.55938 17.5742 4.75 16.7281 4.75 15.6925H3.25C3.25 17.5235 4.68532 19.0405 6.52453 19.1139L6.58437 17.6151ZM12 17.75C10.3559 17.75 8.23073 17.6808 6.58437 17.6151L6.52453 19.1139C8.1741 19.1798 10.3242 19.25 12 19.25V17.75ZM17.4156 17.6151C15.7693 17.6808 13.6441 17.75 12 17.75V19.25C13.6758 19.25 15.8259 19.1798 17.4755 19.1139L17.4156 17.6151ZM19.25 15.6925C19.25 16.7281 18.4406 17.5742 17.4156 17.6151L17.4755 19.1139C19.3147 19.0405 20.75 17.5235 20.75 15.6925H19.25ZM19.0542 14.8413C19.1794 15.0975 19.25 15.3857 19.25 15.6925H20.75C20.75 15.1525 20.6251 14.6395 20.402 14.1828L19.0542 14.8413ZM17.25 8V10.7822H18.75V8H17.25ZM12 2.75C14.8995 2.75 17.25 5.10051 17.25 8H18.75C18.75 4.27208 15.7279 1.25 12 1.25V2.75ZM20.402 14.1828C20.2338 13.8386 20.0328 13.5091 19.8402 13.2043C19.6406 12.8885 19.4574 12.6101 19.2871 12.3196C18.9471 11.7397 18.75 11.2564 18.75 10.7822H17.25C17.25 11.6685 17.6183 12.4389 17.9931 13.0782C18.1802 13.3974 18.3917 13.72 18.5721 14.0055C18.7595 14.3021 18.9238 14.5744 19.0542 14.8413L20.402 14.1828ZM5.25 10.7822C5.25 11.2564 5.05286 11.7397 4.71289 12.3196C4.54262 12.6101 4.35939 12.8885 4.15983 13.2043C3.96721 13.5091 3.7662 13.8386 3.59801 14.1828L4.94576 14.8413C5.07618 14.5744 5.24049 14.3021 5.42788 14.0055C5.60833 13.72 5.81981 13.3974 6.00691 13.0782C6.38169 12.4389 6.75 11.6685 6.75 10.7822H5.25Z" fill="#D9D9D9"/>
<path d="M14 20.834C13.5326 21.5369 12.7335 22.0002 11.8261 22.0002C10.9187 22.0002 10.1195 21.5369 9.65218 20.834" stroke="#D9D9D9" stroke-width="1.5" stroke-linecap="round"/>
</svg>
