<svg width="24" height="24" viewBox="0 0 24 24" fill="none" xmlns="http://www.w3.org/2000/svg">
<path fill-rule="evenodd" clip-rule="evenodd" d="M12 2C8.68629 2 6 4.68629 6 8V10.6723C6 12.0719 4.78707 13.2534 4.21985 14.5329C4.07852 14.8517 4 15.2045 4 15.5757C4 16.8588 4.94417 17.9455 6.21906 18.0899C7.90369 18.2808 10.225 18.5 12 18.5C13.775 18.5 16.0963 18.2808 17.7809 18.0899C19.0558 17.9455 20 16.8588 20 15.5757C20 15.2045 19.9215 14.8517 19.7802 14.5329C19.2129 13.2534 18 12.0719 18 10.6723V8C18 4.68629 15.3137 2 12 2Z" fill="#D9D9D9"/>
<path d="M6.21906 18.0899L6.30349 17.3447H6.30349L6.21906 18.0899ZM17.7809 18.0899L17.6965 17.3447H17.6965L17.7809 18.0899ZM4.21985 14.5329L3.5342 14.2289L4.21985 14.5329ZM6.75 8C6.75 5.1005 9.10051 2.75 12 2.75V1.25C8.27208 1.25 5.25 4.27208 5.25 8H6.75ZM6.75 10.6723V8H5.25V10.6723H6.75ZM4.75 15.5757C4.75 15.3112 4.80578 15.0618 4.9055 14.8368L3.5342 14.2289C3.35126 14.6416 3.25 15.0978 3.25 15.5757H4.75ZM6.30349 17.3447C5.4186 17.2444 4.75 16.4883 4.75 15.5757H3.25C3.25 17.2293 4.46973 18.6465 6.13463 18.8352L6.30349 17.3447ZM12 17.75C10.2704 17.75 7.98502 17.5352 6.30349 17.3447L6.13463 18.8352C7.82236 19.0264 10.1796 19.25 12 19.25V17.75ZM17.6965 17.3447C16.015 17.5352 13.7296 17.75 12 17.75V19.25C13.8204 19.25 16.1776 19.0264 17.8654 18.8352L17.6965 17.3447ZM19.25 15.5757C19.25 16.4883 18.5814 17.2444 17.6965 17.3447L17.8654 18.8352C19.5303 18.6465 20.75 17.2293 20.75 15.5757H19.25ZM19.0945 14.8368C19.1942 15.0618 19.25 15.3112 19.25 15.5757H20.75C20.75 15.0978 20.6487 14.6416 20.4658 14.2289L19.0945 14.8368ZM17.25 8V10.6723H18.75V8H17.25ZM12 2.75C14.8995 2.75 17.25 5.10051 17.25 8H18.75C18.75 4.27208 15.7279 1.25 12 1.25V2.75ZM20.4658 14.2289C20.1593 13.5376 19.6457 12.8097 19.3223 12.2648C18.9614 11.6569 18.75 11.1593 18.75 10.6723H17.25C17.25 11.5849 17.6451 12.3779 18.0324 13.0305C18.4573 13.7461 18.8337 14.2486 19.0945 14.8368L20.4658 14.2289ZM5.25 10.6723C5.25 11.1593 5.03859 11.6569 4.67771 12.2648C4.35426 12.8097 3.84066 13.5376 3.5342 14.2289L4.9055 14.8368C5.16626 14.2486 5.54273 13.7461 5.96756 13.0305C6.35494 12.3779 6.75 11.5849 6.75 10.6723H5.25Z" fill="#D9D9D9"/>
<path d="M14 20.834C13.5326 21.5369 12.7335 22.0002 11.8261 22.0002C10.9187 22.0002 10.1195 21.5369 9.65218 20.834" stroke="#D9D9D9" stroke-width="1.5" stroke-linecap="round"/>
<circle cx="18" cy="5" r="3" fill="#FD7F12"/>
</svg>
