<svg width="24" height="24" viewBox="0 0 24 24" fill="none" xmlns="http://www.w3.org/2000/svg">
<path fill-rule="evenodd" clip-rule="evenodd" d="M11.25 3.03499L11.1634 3.00248C8.49 1.99925 5.51 1.99925 2.83663 3.00248C1.90173 3.35332 1.25 4.22213 1.25 5.22913V19.0798C1.25 20.5947 2.83232 21.4933 4.16836 20.9919C5.98537 20.31 8.01463 20.31 9.83164 20.9919L11.25 21.5241V3.03499ZM12.75 21.5241L14.1684 20.9919C15.9854 20.31 18.0146 20.31 19.8316 20.9919C21.1677 21.4933 22.75 20.5947 22.75 19.0798V5.22913C22.75 4.22213 22.0983 3.35332 21.1634 3.00248C18.49 1.99925 15.51 1.99925 12.8366 3.00248L12.75 3.03499V21.5241Z" fill="#D9D9D9"/>
</svg>
