<svg width="32" height="32" viewBox="0 0 32 32" fill="none" xmlns="http://www.w3.org/2000/svg">
<path fill-rule="evenodd" clip-rule="evenodd" d="M8.74774 10.2C6.12564 10.2 4 12.3256 4 14.9477V21C4 24.3137 6.68629 27 10 27H22C25.3137 27 28 24.3137 28 21V14.9477C28 12.3256 25.8744 10.2 23.2523 10.2C22.4926 10.2 21.806 9.74726 21.5067 9.04899L21.1351 8.18189C20.5678 6.85823 19.2663 6 17.8262 6H16H14.1738C12.7337 6 11.4322 6.85823 10.8649 8.18189L10.4933 9.04899C10.194 9.74726 9.50744 10.2 8.74774 10.2ZM18.85 17.4C18.85 15.826 17.574 14.55 16 14.55C14.426 14.55 13.15 15.826 13.15 17.4C13.15 18.974 14.426 20.25 16 20.25C17.574 20.25 18.85 18.974 18.85 17.4ZM16 13.05C18.4024 13.05 20.35 14.9976 20.35 17.4C20.35 19.8024 18.4024 21.75 16 21.75C13.5976 21.75 11.65 19.8024 11.65 17.4C11.65 14.9976 13.5976 13.05 16 13.05Z" fill="#D9D9D9"/>
</svg>
