<svg width="24" height="24" viewBox="0 0 24 24" fill="none" xmlns="http://www.w3.org/2000/svg">
<path fill-rule="evenodd" clip-rule="evenodd" d="M5.95645 6.5C3.77136 6.5 2 8.27136 2 10.4565V15.5C2 18.2614 4.23858 20.5 7 20.5H17C19.7614 20.5 22 18.2614 22 15.5V10.4565C22 8.27136 20.2286 6.5 18.0435 6.5C17.4105 6.5 16.8383 6.12272 16.5889 5.54083L16.2792 4.81824C15.8065 3.71519 14.7219 3 13.5218 3H12H10.4782C9.2781 3 8.19349 3.71519 7.72075 4.81824L7.41107 5.54083C7.16169 6.12272 6.58953 6.5 5.95645 6.5ZM14.25 12.5C14.25 11.2574 13.2426 10.25 12 10.25C10.7574 10.25 9.75 11.2574 9.75 12.5C9.75 13.7426 10.7574 14.75 12 14.75C13.2426 14.75 14.25 13.7426 14.25 12.5ZM12 8.75C14.0711 8.75 15.75 10.4289 15.75 12.5C15.75 14.5711 14.0711 16.25 12 16.25C9.92893 16.25 8.25 14.5711 8.25 12.5C8.25 10.4289 9.92893 8.75 12 8.75Z" fill="#D9D9D9"/>
</svg>
