<svg width="24" height="24" viewBox="0 0 24 24" fill="none" xmlns="http://www.w3.org/2000/svg">
<path fill-rule="evenodd" clip-rule="evenodd" d="M1.26459 2.8529C1.34582 2.44674 1.74094 2.18332 2.14711 2.26456L3.19647 2.47443C4.38172 2.71148 5.27323 3.69467 5.3935 4.89739L5.47876 5.74999H19.0542C21.0385 5.74999 22.4944 7.61473 22.0132 9.53972L20.8904 14.0308C20.4174 15.9227 18.7175 17.25 16.7673 17.25H7.77437C6.38232 17.25 5.20982 16.2098 5.04396 14.8276L4.05448 6.58199L3.90095 5.04665C3.84628 4.49995 3.44105 4.05305 2.9023 3.9453L1.85294 3.73543C1.44677 3.65419 1.18335 3.25907 1.26459 2.8529ZM8.99988 12.7498C8.58566 12.7498 8.24988 13.0856 8.24988 13.4998C8.24988 13.9141 8.58566 14.2498 8.99988 14.2498H12.9999C13.4141 14.2498 13.7499 13.9141 13.7499 13.4998C13.7499 13.0856 13.4141 12.7498 12.9999 12.7498H8.99988Z" fill="#D9D9D9"/>
<circle cx="8.5" cy="20" r="1.5" fill="#D9D9D9"/>
<circle cx="17.5" cy="20" r="1.5" fill="#D9D9D9"/>
</svg>
