<svg width="20" height="20" viewBox="0 0 20 20" fill="none" xmlns="http://www.w3.org/2000/svg">
<path fill-rule="evenodd" clip-rule="evenodd" d="M1.01211 2.50124C1.07833 2.16365 1.4004 1.94471 1.73147 2.01223L2.58683 2.18666C3.55294 2.38369 4.27963 3.20088 4.37767 4.20054L4.44717 4.90919H15.5128C17.1302 4.90919 18.3169 6.45909 17.9247 8.05907L17.0095 11.7919C16.6239 13.3644 15.2383 14.4676 13.6487 14.4676H6.31836C5.18367 14.4676 4.22794 13.603 4.09275 12.4542L3.28621 5.60072L3.16106 4.32459C3.1165 3.8702 2.78618 3.49875 2.34704 3.4092L1.49169 3.23476C1.16061 3.16724 0.945896 2.83883 1.01211 2.50124ZM7.3175 10.6006C6.90329 10.6006 6.5675 10.9364 6.5675 11.3506C6.5675 11.7648 6.90329 12.1006 7.3175 12.1006H10.578C10.9922 12.1006 11.328 11.7648 11.328 11.3506C11.328 10.9364 10.9922 10.6006 10.578 10.6006H7.3175Z" fill="white"/>
<ellipse cx="6.90981" cy="16.7532" rx="1.22268" ry="1.24674" fill="white"/>
<ellipse cx="14.2462" cy="16.7532" rx="1.22268" ry="1.24674" fill="white"/>
</svg>
