<svg width="24" height="24" viewBox="0 0 24 24" fill="none" xmlns="http://www.w3.org/2000/svg">
<path fill-rule="evenodd" clip-rule="evenodd" d="M22 12C22 17.5228 17.5228 22 12 22C6.47715 22 2 17.5228 2 12C2 6.47715 6.47715 2 12 2C17.5228 2 22 6.47715 22 12ZM14.6519 9.34858C14.9448 9.64147 14.9448 10.1163 14.6519 10.4092L13.0609 12.0002L14.6519 13.5913C14.9448 13.8841 14.9448 14.359 14.6519 14.6519C14.359 14.9448 13.8841 14.9448 13.5912 14.6519L12.0002 13.0609L10.4092 14.6519C10.1163 14.9448 9.64147 14.9448 9.34858 14.6519C9.05568 14.359 9.05568 13.8841 9.34858 13.5912L10.9395 12.0002L9.34858 10.4093C9.05568 10.1164 9.05568 9.6415 9.34858 9.34861C9.64147 9.05572 10.1163 9.05572 10.4092 9.34861L12.0002 10.9396L13.5912 9.34858C13.8841 9.05568 14.359 9.05568 14.6519 9.34858Z" fill="#D9D9D9"/>
</svg>
