<svg width="32" height="32" viewBox="0 0 32 32" fill="none" xmlns="http://www.w3.org/2000/svg">
<path fill-rule="evenodd" clip-rule="evenodd" d="M28 16C28 22.6274 22.6274 28 16 28C9.37258 28 4 22.6274 4 16C4 9.37258 9.37258 4 16 4C22.6274 4 28 9.37258 28 16ZM19.5303 12.4697C19.8232 12.7626 19.8232 13.2374 19.5303 13.5303L17.0607 16L19.5303 18.4697C19.8232 18.7626 19.8232 19.2374 19.5303 19.5303C19.2374 19.8232 18.7626 19.8232 18.4697 19.5303L16 17.0607L13.5303 19.5303C13.2374 19.8232 12.7626 19.8232 12.4697 19.5303C12.1768 19.2374 12.1768 18.7626 12.4697 18.4697L14.9393 16L12.4697 13.5303C12.1768 13.2374 12.1768 12.7626 12.4697 12.4697C12.7626 12.1768 13.2374 12.1768 13.5303 12.4697L16 14.9393L18.4697 12.4697C18.7626 12.1768 19.2374 12.1768 19.5303 12.4697Z" fill="#D9D9D9"/>
</svg>
