<svg width="24" height="24" viewBox="0 0 24 24" fill="none" xmlns="http://www.w3.org/2000/svg">
<path d="M6.69509 17.2442C4.83558 16.2554 3.30102 14.7383 2.29254 12.8942C1.90248 12.181 1.90249 11.3188 2.29256 10.6055C4.11847 7.26683 7.66882 4.99997 11.75 4.99997C13.8073 4.99997 15.7297 5.57601 17.3643 6.57501L14.6123 9.32705C13.9244 8.51526 12.8974 7.99997 11.75 7.99997C9.67893 7.99997 8 9.6789 8 11.75C8 12.8973 8.51529 13.9244 9.32708 14.6122L6.69509 17.2442Z" fill="#D9D9D9"/>
<path d="M8.16934 17.8913C9.28952 18.2855 10.4947 18.5 11.75 18.5C15.8312 18.5 19.3815 16.2331 21.2074 12.8944C21.5975 12.1812 21.5975 11.3189 21.2075 10.6057C20.5464 9.39696 19.6594 8.32871 18.603 7.45765L15.3532 10.7074C15.4488 11.0384 15.5 11.3882 15.5 11.75C15.5 13.821 13.8211 15.5 11.75 15.5C11.3882 15.5 11.0384 15.4487 10.7075 15.3532L8.16934 17.8913Z" fill="#D9D9D9"/>
<path d="M11.75 11.75L10.1645 13.3464C9.75409 12.9388 9.5 12.3741 9.5 11.75C9.5 10.5073 10.5074 9.49998 11.75 9.49998C12.2625 9.49998 12.7349 9.6713 13.1132 9.95979L11.75 11.75Z" fill="#D9D9D9"/>
<path d="M19 3.99999L4 19" stroke="#D9D9D9" stroke-width="1.5" stroke-linecap="round" stroke-linejoin="round"/>
</svg>
