<svg width="24" height="24" viewBox="0 0 24 24" fill="none" xmlns="http://www.w3.org/2000/svg">
<path d="M4 3.5C4 2.67157 4.67157 2 5.5 2H10.5C11.3284 2 12 2.67157 12 3.5V11.5C12 12.3284 11.3284 13 10.5 13H4V3.5Z" fill="#D9D9D9" stroke="#D9D9D9" stroke-width="1.5"/>
<path d="M11 4H18.0362C18.8535 4 19.3257 4.9272 18.845 5.58817L16.8555 8.32366C16.3455 9.02496 16.3455 9.97504 16.8555 10.6763L18.845 13.4118C19.3257 14.0728 18.8535 15 18.0362 15H12C11.4477 15 11 14.5523 11 14V4Z" fill="#D9D9D9" stroke="#D9D9D9" stroke-width="1.5"/>
<path d="M4 22L4 4" stroke="#D9D9D9" stroke-width="1.5" stroke-linecap="round" stroke-linejoin="round"/>
</svg>
