<svg width="14" height="14" viewBox="0 0 14 14" fill="none" xmlns="http://www.w3.org/2000/svg">
<path fill-rule="evenodd" clip-rule="evenodd" d="M5.3876 3.21157C5.04427 3.37126 4.89381 3.77783 5.05048 4.12255L6.34504 6.97093C6.29532 6.99668 6.24419 7.02321 6.19181 7.05046L4.82901 4.0526C4.66805 3.69851 4.24928 3.54356 3.8966 3.70759C3.54822 3.86962 3.39557 4.28218 3.55457 4.63195L4.95286 7.7079L4.78651 7.7985L3.5883 5.19654C3.41632 4.8231 2.96009 4.67896 2.60479 4.88583C2.2945 5.06648 2.17229 5.45333 2.32247 5.77946L3.56974 8.48793C3.51826 8.5185 3.46766 8.5488 3.41807 8.57876L2.33006 6.4742C2.14948 6.12491 1.71795 5.99103 1.37138 6.17677C1.03525 6.35692 0.903477 6.77181 1.07405 7.11289L2.26148 9.48731L2.26636 9.49566L2.26827 9.49997C2.26827 9.49997 3.2146 11.6082 4.27016 12.5C5.69798 13.7286 9.09756 12.9211 9.68309 9.73359C9.73265 9.46382 9.76606 9.19077 9.79948 8.91774L9.79948 8.91772L9.79948 8.91769L9.79948 8.91767C9.84627 8.53537 9.89305 8.15313 9.98411 7.78003C10.0869 7.35876 10.1831 7.01631 10.2626 6.73289L10.2626 6.73287C10.5 5.88735 10.5899 5.56717 10.2697 5.24697C9.76968 4.74714 9.11736 5.05213 8.76968 5.74753L8.76968 5.74753C8.33731 6.61228 8.27883 6.72923 7.94759 7.06807C7.7225 6.57529 7.50406 6.11615 7.28563 5.65701C6.97038 4.99437 6.65513 4.33172 6.31986 3.56795C6.16265 3.20983 5.74223 3.04663 5.3876 3.21157Z" fill="#FFDD67"/>
<path d="M7.78451 7.24707C6.65615 7.37447 6.26758 8.24707 6.76708 9.74707C6.57658 8.22887 6.71075 7.77485 7.60252 7.35627C7.69351 7.28347 7.78451 7.24707 7.78451 7.24707Z" fill="#EBA352"/>
<path d="M9.97437 1.6008C11.3743 1.3988 12.9758 2.5969 13.1773 3.99691" stroke="#ECEDF2" stroke-width="0.8" stroke-linecap="round"/>
<path d="M9.76795 3.33148C10.6155 3.2092 11.5849 3.93449 11.7069 4.78201" stroke="#ECEDF2" stroke-width="0.6" stroke-linecap="round"/>
</svg>
