<svg width="28" height="28" viewBox="0 0 28 28" fill="none" xmlns="http://www.w3.org/2000/svg">
<path fill-rule="evenodd" clip-rule="evenodd" d="M10.7755 6.42351C10.0888 6.74288 9.78786 7.55603 10.1012 8.24547L12.6903 13.9422C12.5909 13.9937 12.4886 14.0468 12.3839 14.1013L9.65827 8.10557C9.33634 7.39739 8.4988 7.08749 7.79344 7.41555C7.09669 7.73961 6.79138 8.56473 7.10938 9.26427L9.90597 15.4162C9.79525 15.4762 9.68427 15.5367 9.57327 15.5974L7.17684 10.3934C6.83289 9.64656 5.92042 9.35829 5.20982 9.77202C4.58925 10.1333 4.34482 10.907 4.64519 11.5593L7.13972 16.9762C7.03677 17.0374 6.93557 17.098 6.83639 17.1579L4.66035 12.9488C4.29921 12.2502 3.43614 11.9824 2.74301 12.3539C2.07075 12.7142 1.8072 13.544 2.14834 14.2261L4.5232 18.975L4.53296 18.9917C4.53411 18.9946 4.53538 18.9975 4.53679 19.0003C4.53679 19.0003 6.42944 23.2168 8.54056 25.0003C11.3962 27.4575 18.1954 25.8426 19.3664 19.4676C19.4655 18.928 19.5324 18.3819 19.5992 17.8358L19.5992 17.8358L19.5992 17.8358L19.5992 17.8357C19.6928 17.0711 19.7863 16.3066 19.9685 15.5604C20.1741 14.7179 20.3664 14.033 20.5255 13.4661L20.5255 13.4661C21.0002 11.7751 21.18 11.1347 20.5396 10.4943C19.5396 9.49465 18.235 10.1046 17.5396 11.4954L17.5396 11.4954C16.6749 13.2249 16.5579 13.4588 15.8954 14.1365C15.4452 13.151 15.0084 12.2327 14.5715 11.3144C13.941 9.9891 13.3105 8.6638 12.64 7.13627C12.3255 6.42002 11.4847 6.09363 10.7755 6.42351Z" fill="#F7CC60"/>
<path d="M15.569 14.4941C13.3123 14.7489 12.5352 16.4941 13.5342 19.4941C13.1532 16.4577 13.4215 15.5497 15.205 14.7125C15.387 14.5669 15.569 14.4941 15.569 14.4941Z" fill="#EBA352"/>
<path d="M19.9487 3.2016C22.7487 2.7976 25.9515 5.1938 26.3546 7.99382" stroke="#D4D7E3" stroke-width="1.6" stroke-linecap="round"/>
<path d="M19.5359 6.66296C21.2309 6.41839 23.1698 7.86898 23.4138 9.56402" stroke="#D4D7E3" stroke-width="1.2" stroke-linecap="round"/>
</svg>
