<svg width="24" height="24" viewBox="0 0 24 24" fill="none" xmlns="http://www.w3.org/2000/svg">
<path fill-rule="evenodd" clip-rule="evenodd" d="M12 2C6.47715 2 2 6.47715 2 12C2 17.5228 6.47715 22 12 22C17.5228 22 22 17.5228 22 12C22 6.47715 17.5228 2 12 2ZM12 10C11.4477 10 11 10.4477 11 11V17C11 17.5523 11.4477 18 12 18C12.5523 18 13 17.5523 13 17V11C13 10.4477 12.5523 10 12 10ZM11 7C11 6.44772 11.4477 6 12 6C12.5523 6 13 6.44772 13 7V8C13 8.55228 12.5523 9 12 9C11.4477 9 11 8.55228 11 8V7Z" fill="#D9D9D9"/>
</svg>
