<svg width="20" height="20" viewBox="0 0 20 20" fill="none" xmlns="http://www.w3.org/2000/svg">
<path fill-rule="evenodd" clip-rule="evenodd" d="M3.99988 8.91878C3.99988 5.64493 6.69126 3.00008 9.99988 3.00008C13.3085 3.00008 15.9999 5.64493 15.9999 8.91878C15.9999 10.9549 14.8076 12.9646 13.544 14.4274C12.9046 15.1677 12.2259 15.7927 11.6273 16.2371C11.3284 16.459 11.0412 16.6421 10.7819 16.7721C10.5389 16.8941 10.2613 17.0001 9.99988 17.0001C9.73846 17.0001 9.4609 16.8941 9.21785 16.7721C8.95858 16.6421 8.67135 16.459 8.3725 16.2371C7.77385 15.7927 7.09516 15.1677 6.45572 14.4274C5.19214 12.9646 3.99988 10.9549 3.99988 8.91878ZM9.99988 11.0001C8.89531 11.0001 7.99988 10.1046 7.99988 9.00008C7.99988 7.89551 8.89531 7.00008 9.99988 7.00008C11.1044 7.00008 11.9999 7.89551 11.9999 9.00008C11.9999 10.1046 11.1044 11.0001 9.99988 11.0001Z" fill="#D9D9D9"/>
</svg>
