<svg width="20" height="20" viewBox="0 0 20 20" fill="none" xmlns="http://www.w3.org/2000/svg">
<path d="M3.59857 4.77239C3.8714 3.68105 4.00782 3.13538 4.41471 2.81769C4.82161 2.5 5.38407 2.5 6.509 2.5H13.491C14.6159 2.5 15.1784 2.5 15.5853 2.81769C15.9922 3.13538 16.1286 3.68105 16.4014 4.77239L17.0134 7.22025C17.032 7.29485 17.0414 7.33215 17.0475 7.3617C17.2359 8.26886 16.5649 9.12818 15.6392 9.16545C15.609 9.16667 15.5706 9.16667 15.4937 9.16667C15.4406 9.16667 15.414 9.16667 15.3906 9.16594C14.6929 9.14419 14.1023 8.64394 13.9662 7.95923C13.9616 7.93631 13.9572 7.91011 13.9485 7.85771L13.8836 7.46851C13.8575 7.31176 13.8445 7.23338 13.8288 7.21332C13.7887 7.16215 13.7113 7.16215 13.6712 7.21332C13.6555 7.23338 13.6425 7.31176 13.6164 7.46851L13.5731 7.72818C13.544 7.9028 13.5294 7.99011 13.5087 8.06522C13.3446 8.66064 12.8323 9.09461 12.218 9.1586C12.1406 9.16667 12.052 9.16667 11.875 9.16667C11.698 9.16667 11.6094 9.16667 11.532 9.1586C10.9177 9.09461 10.4054 8.66064 10.2413 8.06522C10.2206 7.99011 10.206 7.9028 10.1769 7.72818L10.1336 7.46851C10.1075 7.31176 10.0945 7.23338 10.0788 7.21332C10.0387 7.16215 9.96128 7.16215 9.92124 7.21332C9.90555 7.23338 9.89248 7.31176 9.86636 7.46851L9.82308 7.72818C9.79398 7.9028 9.77943 7.99011 9.75872 8.06522C9.59462 8.66064 9.08234 9.09461 8.46804 9.1586C8.39055 9.16667 8.30203 9.16667 8.125 9.16667C7.94797 9.16667 7.85945 9.16667 7.78196 9.1586C7.16766 9.09461 6.65538 8.66064 6.49128 8.06522C6.47057 7.99011 6.45602 7.9028 6.42692 7.72818L6.38364 7.46851C6.35751 7.31176 6.34445 7.23338 6.32876 7.21332C6.28872 7.16215 6.21128 7.16215 6.17124 7.21332C6.15555 7.23338 6.14248 7.31176 6.11636 7.46851L6.05149 7.85771C6.04276 7.91011 6.03839 7.93631 6.03383 7.95923C5.89767 8.64394 5.30714 9.14419 4.60936 9.16594C4.58601 9.16667 4.55945 9.16667 4.50632 9.16667C4.42943 9.16667 4.39098 9.16667 4.36082 9.16545C3.43506 9.12818 2.76412 8.26886 2.95249 7.3617C2.95863 7.33215 2.96795 7.29485 2.9866 7.22025L3.59857 4.77239Z" fill="white"/>
<path fill-rule="evenodd" clip-rule="evenodd" d="M4.19225 10.6654C4.16663 11.1214 4.16663 11.6687 4.16663 12.3332V14.4998C4.16663 15.914 4.16663 16.6211 4.60597 17.0605C5.04531 17.4998 5.75241 17.4998 7.16663 17.4998H8.33329V15.1665C8.33329 14.6142 8.78101 14.1665 9.33329 14.1665H10.6666C11.2189 14.1665 11.6666 14.6142 11.6666 15.1665V17.4998H12.8333C14.2475 17.4998 14.9546 17.4998 15.394 17.0605C15.8333 16.6211 15.8333 15.914 15.8333 14.4998V12.3332C15.8333 11.6687 15.8333 11.1214 15.8077 10.6654C15.7379 10.6643 15.6692 10.6619 15.6035 10.657C14.9453 10.6085 14.3333 10.3779 13.8221 10.0114C13.2779 10.4245 12.601 10.6665 11.875 10.6665C11.1807 10.6665 10.5313 10.4452 9.99996 10.0647C9.46862 10.4452 8.81922 10.6665 8.12496 10.6665C7.39894 10.6665 6.72197 10.4245 6.17778 10.0114C5.66667 10.3779 5.05465 10.6085 4.39638 10.657C4.33075 10.6619 4.26199 10.6643 4.19225 10.6654Z" fill="white"/>
</svg>
