<svg width="24" height="24" viewBox="0 0 24 24" fill="none" xmlns="http://www.w3.org/2000/svg">
<path d="M4.4319 5.27239C4.70474 4.18105 4.84115 3.63538 5.24805 3.31769C5.65494 3 6.2174 3 7.34233 3H16.6577C17.7826 3 18.3451 3 18.752 3.31769C19.1588 3.63538 19.2953 4.18105 19.5681 5.27239L20.4161 8.6643C20.5227 9.09089 20.576 9.30419 20.5787 9.47733C20.5893 10.1825 20.1073 10.7999 19.4206 10.9605C19.252 11 19.0321 11 18.5924 11C18.2887 11 18.1369 11 18.0052 10.9763C17.4764 10.8812 17.0389 10.5106 16.8581 10.0046C16.8131 9.87859 16.7881 9.72881 16.7382 9.42925L16.6604 8.96221C16.6141 8.68435 16.5909 8.54542 16.5502 8.52179C16.5192 8.50377 16.4808 8.50377 16.4498 8.52179C16.4091 8.54542 16.3859 8.68435 16.3396 8.96221L16.2877 9.27381C16.2132 9.72052 16.176 9.94388 16.0926 10.1257C15.9071 10.53 15.5516 10.831 15.1223 10.9476C14.9293 11 14.7029 11 14.25 11C13.7971 11 13.5707 11 13.3777 10.9476C12.9484 10.831 12.5929 10.53 12.4074 10.1257C12.324 9.94388 12.2868 9.72052 12.2123 9.27381L12.1604 8.96221C12.1141 8.68435 12.0909 8.54542 12.0502 8.52179C12.0192 8.50377 11.9808 8.50377 11.9498 8.52179C11.9091 8.54542 11.8859 8.68435 11.8396 8.96221L11.7877 9.27381C11.7132 9.72052 11.676 9.94388 11.5926 10.1257C11.4071 10.53 11.0516 10.831 10.6223 10.9476C10.4293 11 10.2029 11 9.75 11C9.29712 11 9.07069 11 8.87767 10.9476C8.44837 10.831 8.09295 10.53 7.9074 10.1257C7.82398 9.94388 7.78675 9.72052 7.7123 9.27381L7.66037 8.96221C7.61406 8.68435 7.5909 8.54542 7.55021 8.52179C7.51916 8.50377 7.48084 8.50377 7.44979 8.52179C7.4091 8.54542 7.38594 8.68435 7.33963 8.96221L7.26179 9.42925C7.21186 9.72881 7.1869 9.87859 7.14189 10.0046C6.96115 10.5106 6.52361 10.8812 5.99482 10.9763C5.86312 11 5.71128 11 5.40758 11C4.96786 11 4.748 11 4.57939 10.9605C3.8927 10.7999 3.41068 10.1825 3.42134 9.47733C3.42395 9.30419 3.47728 9.09089 3.58392 8.6643L4.4319 5.27239Z" fill="#D9D9D9"/>
<path fill-rule="evenodd" clip-rule="evenodd" d="M5.01747 12.5002C5 12.9211 5 13.4152 5 14V19C5 20.4142 5 21.1213 5.43934 21.5607C5.87868 22 6.58579 22 8 22H10V18C10 17.4477 10.4477 17 11 17H13C13.5523 17 14 17.4477 14 18V22H16C17.4142 22 18.1213 22 18.5607 21.5607C19 21.1213 19 20.4142 19 19V14C19 13.4152 19 12.9211 18.9825 12.5002C18.6177 12.4993 18.2446 12.489 17.9002 12.4087C17.3808 12.2877 16.904 12.0519 16.5 11.7268C15.9159 12.1969 15.1803 12.4807 14.3867 12.4991C14.3456 12.5 14.3022 12.5 14.2609 12.5H14.2608L14.25 12.5L14.2392 12.5H14.2391C14.1978 12.5 14.1544 12.5 14.1133 12.4991C13.3197 12.4807 12.5841 12.1969 12 11.7268C11.4159 12.1969 10.6803 12.4807 9.88668 12.4991C9.84555 12.5 9.80225 12.5 9.76086 12.5H9.76077L9.75 12.5L9.73923 12.5H9.73914C9.69775 12.5 9.65445 12.5 9.61332 12.4991C8.8197 12.4807 8.08409 12.1969 7.5 11.7268C7.09596 12.0519 6.6192 12.2877 6.09984 12.4087C5.75542 12.489 5.38227 12.4993 5.01747 12.5002Z" fill="#D9D9D9"/>
</svg>
