<svg width="18" height="18" viewBox="0 0 18 18" fill="none" xmlns="http://www.w3.org/2000/svg">
<g clip-path="url(#clip0_38_1339)">
<path fill-rule="evenodd" clip-rule="evenodd" d="M18.0004 9.20483C18.0011 8.58732 17.9453 7.97099 17.8334 7.36328H9.18164V10.8446H14.1244C14.0218 11.3947 13.8065 11.9187 13.4916 12.385C13.1767 12.8513 12.7686 13.2502 12.2919 13.5577V15.8164H15.2595C16.9959 14.2496 17.9978 11.9417 17.9978 9.20313L18.0004 9.20483Z" fill="#3E82F1"/>
<path fill-rule="evenodd" clip-rule="evenodd" d="M9.18363 17.9989C11.6632 17.9989 13.7422 17.1934 15.2615 15.819L12.2939 13.5603C11.4712 14.1004 10.4191 14.4201 9.18363 14.4201C6.79142 14.4201 4.7669 12.8363 4.04535 10.709H0.976562V13.0414C1.74102 14.5322 2.91339 15.7853 4.36269 16.6607C5.81199 17.5362 7.48114 17.9995 9.18363 17.9989Z" fill="#32A753"/>
<path fill-rule="evenodd" clip-rule="evenodd" d="M4.04551 10.7089C3.66137 9.60017 3.66137 8.3982 4.04551 7.28949V4.95703H0.97673C0.334454 6.21152 0 7.59565 0 8.99919C0 10.4027 0.334454 11.7869 0.97673 13.0413L4.04551 10.7089Z" fill="#F9BB00"/>
<path fill-rule="evenodd" clip-rule="evenodd" d="M9.18385 3.5788C10.5327 3.5788 11.743 4.03325 12.6947 4.9252L15.3283 2.34348C13.7381 0.891099 11.6591 6.22621e-07 9.18558 6.22621e-07C7.48308 -0.000619949 5.81394 0.462668 4.36464 1.33811C2.91534 2.21355 1.74297 3.46665 0.978516 4.95742L4.0473 7.28987C4.76886 5.1626 6.79337 3.5788 9.18558 3.5788H9.18385Z" fill="#E74133"/>
</g>
<defs>
<clipPath id="clip0_38_1339">
<rect width="18" height="18" fill="white"/>
</clipPath>
</defs>
</svg>
